<svg width="11" height="11" viewBox="0 0 11 11" fill="none" xmlns="http://www.w3.org/2000/svg">
<path d="M10.8815 4.08249C10.8006 3.82968 10.559 3.65592 10.2187 3.60572L7.51968 3.20734L6.31266 0.723356C6.16043 0.410124 5.92307 0.230469 5.66138 0.230469C5.3997 0.230469 5.16234 0.410124 5.01013 0.723356L3.80315 3.20732L1.10411 3.6057C0.76374 3.6559 0.522171 3.82968 0.441292 4.08245C0.360434 4.33523 0.455315 4.62002 0.701559 4.86383L2.65459 6.79731L2.19353 9.52757C2.13291 9.88669 2.23587 10.1015 2.33295 10.2184C2.44648 10.3551 2.61211 10.4305 2.79933 10.4305C2.94088 10.4305 3.09162 10.3883 3.24729 10.3052L5.66138 9.0161L8.07548 10.3051C8.23119 10.3883 8.38191 10.4304 8.52348 10.4304H8.52352C8.71076 10.4304 8.87639 10.3551 8.98993 10.2183C9.08698 10.1015 9.18996 9.88667 9.12932 9.52752L8.6682 6.79733L10.6212 4.86387C10.8675 4.62006 10.9624 4.33525 10.8815 4.08249Z" fill="#FF8412"/>
</svg>
